<?xml version="1.0" encoding="utf-8"?>
<!-- Generator: Adobe Illustrator 21.1.0, SVG Export Plug-In . SVG Version: 6.00 Build 0)  -->
<svg version="1.1" xmlns="http://www.w3.org/2000/svg" xmlns:xlink="http://www.w3.org/1999/xlink" x="0px" y="0px"
	 viewBox="0 0 800 600" style="enable-background:new 0 0 800 600;" xml:space="preserve">
<style type="text/css">
	.st0{fill:#2EADB6;}
	.st1{fill:#21A29A;}
	.st2{fill:#FFFFFF;}
	.st3{opacity:0.15;}
	.st4{fill:#F9AA1A;}
	.st5{opacity:5.000000e-02;}
	.st6{opacity:5.000000e-02;fill-rule:evenodd;clip-rule:evenodd;}
	.st7{fill-rule:evenodd;clip-rule:evenodd;fill:#21A29A;}
	.st8{fill:#E95125;}
	.st9{fill:#7C9E32;}
	.st10{fill:#93C23E;}
	.st11{fill:#A6D14A;}
	.st12{fill:#EFEFEF;}
	.st13{fill:#CECECE;}
	.st14{fill-rule:evenodd;clip-rule:evenodd;fill:#E95125;}
</style>
<g id="background">
</g>
<g id="objects">
	<path class="st0" d="M689.4,363.8h-68.6c-4.2,0-7.6-3.4-7.6-7.6V310c0-4.2,3.4-7.6,7.6-7.6h68.6c4.2,0,7.6,3.4,7.6,7.6v46.3
		C697,360.4,693.6,363.8,689.4,363.8z"/>
	<path class="st1" d="M689.4,363.8h-68.6c-4.2,0-7.6-3.4-7.6-7.6V310c0-4.2,3.4-7.6,7.6-7.6h68.6c4.2,0,7.6,3.4,7.6,7.6v46.3
		C697,360.4,693.6,363.8,689.4,363.8z"/>
	<path class="st2" d="M650.8,319.6l18.8,10.9c2,1.1,2,4,0,5.1l-18.8,10.9c-2,1.1-4.4-0.3-4.4-2.6v-21.7
		C646.4,319.9,648.9,318.4,650.8,319.6z"/>
	<path class="st3" d="M620.3,363.8H690c3.9,0,7-3.1,7-7v-24.3h-83.7v24.3C613.3,360.7,616.5,363.8,620.3,363.8z"/>
	<path class="st4" d="M75.2,339.3c0-20,20.4-36.2,45.6-36.2s45.6,16.2,45.6,36.2c0,20-20.4,36.2-45.6,36.2c-1.3,0-2.6-0.1-3.9-0.1
		c-2.4,2.7-6,6.1-10.4,8.1c-8.3,3.8-18.9,3.1-18.9,3.1s8.3-6.9,12.4-11.7c0.7-0.8,1.3-1.7,1.9-2.6C86.1,366.5,75.2,353.9,75.2,339.3
		z"/>
	<path class="st5" d="M203.7,319.3c0-20-20.4-36.2-45.6-36.2s-45.6,16.2-45.6,36.2c0,20,20.4,36.2,45.6,36.2c1.3,0,2.6-0.1,3.9-0.1
		c2.4,2.7,6,6.1,10.4,8.1c8.3,3.8,18.9,3.1,18.9,3.1s-8.3-6.9-12.4-11.7c-0.7-0.8-1.3-1.7-1.9-2.6
		C192.8,346.5,203.7,333.9,203.7,319.3z"/>
	<path class="st6" d="M209.5,229.4c30.2,0,54.8-24.6,54.8-54.8c0-30.2-24.6-54.8-54.8-54.8s-54.8,24.6-54.8,54.8
		C154.6,204.8,179.3,229.4,209.5,229.4z"/>
	<path class="st7" d="M238.8,195.1v1.7h-0.6c-1.5,3.4-5.4,6.4-10.6,7.8c-7.4,1.9-14.5-0.4-15.7-5.2c-1.3-4.8,3.7-10.3,11.1-12.3
		c3.6-0.9,7.1-0.9,9.9,0l0-16.9l-30.9-5l-0.1,17.7c0.5,0.7,1,1.4,1.2,2.3c1.3,4.8-3.7,10.3-11.1,12.3c-7.4,1.9-14.5-0.4-15.7-5.2
		c-1.3-4.8,3.7-10.3,11.2-12.3c3.1-0.8,6.1-0.8,8.7-0.3c0-5.2,0-11.8,0-18.2l-0.1-4.2l0.1,0c0-3.8,0-7.4,0-10.4l-0.1-13.2l42.4,7.2
		l0,9l0.3,0v42.4C239,193.3,239,194.2,238.8,195.1z M202.1,149.8l0,8.6l30.9,5.2l0-8.8L202.1,149.8z"/>
	<g>
		<circle class="st8" cx="210.8" cy="462.7" r="34.5"/>
	</g>
	<g>
		<path class="st2" d="M229.9,481.8c0-12.8-8.4-23.2-18.9-23.2c-10.4,0-18.8,10.4-18.8,23.2H229.9z"/>
		<ellipse class="st2" cx="210.8" cy="446.8" rx="11.1" ry="10.2"/>
	</g>
	<circle class="st4" cx="610.1" cy="456" r="31.7"/>
	<path class="st2" d="M630.8,454.1c-0.9-11.2-10.8-19.6-22-18.6c-11.2,0.9-19.6,10.8-18.6,22c0.9,11.2,10.8,19.6,22,18.6l2.5-0.2
		c1.4-0.1,2.4-1.4,2.3-2.8c-0.1-1.4-1.4-2.4-2.8-2.3l-2.5,0.2c-8.4,0.7-15.8-5.5-16.5-14c-0.7-8.4,5.6-15.8,14-16.5
		c8.4-0.7,15.8,5.5,16.5,14l0.6,7.6c0.1,1.4-0.9,2.6-2.3,2.8c-1.4,0.1-2.6-0.9-2.8-2.3l-0.6-7.6c-0.5-5.6-5.4-9.8-11-9.3
		c-5.6,0.5-9.8,5.4-9.3,11c0.5,5.6,5.4,9.8,11,9.3c1.9-0.2,3.6-0.9,5.1-1.9c0.8,3.6,4.2,6.2,8.1,5.9c4.2-0.4,7.3-4.1,7-8.3
		L630.8,454.1z M610.9,460.9c-2.8,0.2-5.3-1.8-5.5-4.7c-0.2-2.8,1.8-5.3,4.7-5.5c2.8-0.2,5.3,1.8,5.5,4.7
		C615.8,458.2,613.7,460.6,610.9,460.9z"/>
	<path class="st5" d="M572.6,168.7c4.1-2.3,10.5-4.8,16-1.9c4.8,2.6,6.4,7,7.6,8.3c4.5-9,16.5-9,22.6-6.4c8.5,3.6,10,10.6,10.1,19.1
		c8.3-3.1,16.8,4,17.1,13c0.3,10.4-9.3,20-22.7,14.9c-1.2,7.2-3,13.4-13.6,16.3c-7.7,2.1-16-3.3-17.2-9.2
		c-3.2,6.8-10.1,11.6-17.8,8.9c-6.7-2.4-12.2-11.3-9.2-18.2c-3.4,1-8.4,0.1-11.6-1.6c-4.9-2.7-6.9-9-5.6-14.4
		c2-8.1,10.5-8.6,17.3-6.4C562.3,183.5,565,173.1,572.6,168.7z"/>
	
		<rect x="288" y="236.1" transform="matrix(1 -5.270558e-03 5.270558e-03 1 -1.58 2.1674)" class="st9" width="244.9" height="129.5"/>
	<path class="st5" d="M326.3,247.5c13.6-7.8,35.2-16.3,53.7-6.4c16.2,8.6,21.4,23.4,25.7,27.9c15.2-30.1,55.6-30.2,75.9-21.5
		c28.6,12.2,33.6,35.7,33.9,64.2c28-10.5,56.5,13.5,57.5,43.8c1.1,34.9-31.2,67.2-76.4,50.1c-3.9,24.2-10.1,45-45.9,54.8
		c-25.9,7-53.7-11.2-57.8-30.9c-10.7,22.7-34,38.9-59.9,29.8c-22.5-7.9-41.1-37.9-30.8-61.1c-11.4,3.4-28.1,0.5-38.9-5.5
		c-16.5-9.2-23.3-30.4-18.8-48.4c6.8-27.1,35.3-28.8,58.1-21.5C291.8,296.9,300.8,262.2,326.3,247.5z"/>
	
		<rect x="288.2" y="300.7" transform="matrix(1 -5.270558e-03 5.270558e-03 1 -1.7502 2.1688)" class="st10" width="244.9" height="64.9"/>
	<polygon class="st11" points="287.6,236.7 410.4,300.9 288.3,366.3 	"/>
	<polygon class="st11" points="532.5,235.5 410.4,300.9 533.2,365 	"/>
	<polygon class="st9" points="287.6,236.7 409.7,154.5 532.5,235.5 	"/>
	<polygon class="st12" points="309.8,250.7 309.6,130.2 505.6,128.9 505.8,252.1 410.4,300.9 	"/>
	<g>
		<path class="st13" d="M478.8,234.1l-137.4,0.7c-2.4,0-4.4-2-4.4-4.4l0,0c0-2.4,2-4.4,4.4-4.4l137.4-0.7c2.4,0,4.4,2,4.4,4.4l0,0
			C483.2,232.1,481.2,234.1,478.8,234.1z"/>
		<path class="st13" d="M478.9,252.2l-137.4,0.7c-2.4,0-4.4-2-4.4-4.4l0,0c0-2.4,2-4.4,4.4-4.4l137.4-0.7c2.4,0,4.4,2,4.4,4.4l0,0
			C483.3,250.2,481.3,252.2,478.9,252.2z"/>
		<path class="st13" d="M478.8,197.4l-137.4,0.7c-2.4,0-4.4-2-4.4-4.4l0,0c0-2.4,2-4.4,4.4-4.4l137.4-0.7c2.4,0,4.4,2,4.4,4.4l0,0
			C483.2,195.4,481.2,197.4,478.8,197.4z"/>
		<path class="st13" d="M478.9,215.6l-137.4,0.7c-2.4,0-4.4-2-4.4-4.4l0,0c0-2.4,2-4.4,4.4-4.4l137.4-0.7c2.4,0,4.4,2,4.4,4.4l0,0
			C483.3,213.6,481.3,215.5,478.9,215.6z"/>
		<path class="st13" d="M478.8,160.8l-137.4,0.7c-2.4,0-4.4-2-4.4-4.4l0,0c0-2.4,2-4.4,4.4-4.4l137.4-0.7c2.4,0,4.4,2,4.4,4.4l0,0
			C483.2,158.8,481.2,160.8,478.8,160.8z"/>
		<path class="st13" d="M478.9,178.9l-137.4,0.7c-2.4,0-4.4-2-4.4-4.4l0,0c0-2.4,2-4.4,4.4-4.4l137.4-0.7c2.4,0,4.4,2,4.4,4.4l0,0
			C483.3,176.9,481.3,178.9,478.9,178.9z"/>
	</g>
	<path class="st14" d="M598.6,194.5c0,0-24.2-38.7-24.2-51.5c0-12.8,11.4-23.2,24.2-23.2c12.8,0,24.2,10.4,24.2,23.2
		C622.8,155.8,598.6,194.5,598.6,194.5z M598.7,132.2c-7,0-12.6,5.7-12.6,12.6s5.7,12.6,12.6,12.6c7,0,12.6-5.7,12.6-12.6
		S605.6,132.2,598.7,132.2z"/>
</g>
</svg>
