<?xml version="1.0" encoding="utf-8"?>
<!-- Generator: Adobe Illustrator 22.0.1, SVG Export Plug-In . SVG Version: 6.00 Build 0)  -->
<svg version="1.1" id="Layer_1" xmlns="http://www.w3.org/2000/svg" xmlns:xlink="http://www.w3.org/1999/xlink" x="0px" y="0px"
	 viewBox="0 0 69.4 74.1" style="enable-background:new 0 0 69.4 74.1;" xml:space="preserve">
<style type="text/css">
	.st0{fill:#A2CD4B;}
</style>
<path class="st0" d="M32.9,72.3c-1-0.2-2-0.2-2.7-0.4c-3.7-0.8-7-2.7-9.8-5.3c-2.2-2-3.9-4.1-5.1-6.6c-1-2.2-1.4-4.5-1.4-6.8
	c-0.2-6.6-0.2-13.3-0.2-19.7c0-1.8,1-2.9,2.3-3.5c1.4-0.4,2.7,0,3.7,1.2c0.6,0.8,0.8,1.6,0.8,2.3c0,3.5,0,6.8,0,10.4
	c0,0.2,0,0.6,0,0.8c0,0.6,0.4,1,1,1c0.6,0,1-0.2,1.2-0.8c0-0.4,0-0.6,0-1c0-11.5,0-23.1,0-34.8c0-2,1-3.3,2.7-3.5
	C27.2,5,29,6.2,29.4,7.9c0,0.4,0,0.8,0,1.4c0,8.8,0,17.6,0,26.4c0,1.2,0.4,1.8,1.2,1.8s1.2-0.4,1.2-1.8c0-10.2,0-20.3,0-30.5
	c0-1.6,0.6-2.7,2-3.5c2.2-1,4.5,0.6,4.5,3.1c0,1.8,0,3.5,0,5.3c0,8.6,0,17.2,0,26c0,0.6,0,1,0.6,1.4c0.6,0.4,1.8,0.2,1.8-1
	c0-2.3,0-4.5,0-6.8c0-6.6,0-13.3,0-19.7c0-1.2,0.2-2.2,1-2.9c1-1.8,2.3-2,3.5-1.4c1.4,0.4,2,1.6,2,2.9c0,1,0,2,0,3.1
	c0,8.6,0,17.4,0,26c0,0.4,0,0.6,0,1c0.2,0.6,0.6,0.8,1.2,0.8s1-0.4,1-0.8c0-0.2,0-0.6,0-1c0-4.9,0-10,0-14.9c0-2,0.8-3.1,2.3-3.5
	c2-0.6,4.1,0.8,4.1,2.7c0.2,2,0,3.7,0,5.7c0,8.4,0,16.8,0,25c0,6.3-2.7,10.9-7.2,14.9c-3.3,2.9-7.4,4.5-11.9,4.9
	c-0.2,0-0.4,0-0.6,0.2C35.2,72.3,34.1,72.3,32.9,72.3z M36.2,49.8H36c-0.2-0.2-0.2-0.4-0.4-0.6c-0.4-1.2-0.8-2.3-1.2-3.3
	c-0.2-0.4-0.4-1-0.6-1.4c-0.2-0.2-0.6-0.6-1-0.4c-0.2,0-0.6,0.4-0.6,0.8c-0.2,0.4,0,0.8,0,1.2c0.2,1,0.4,1.8,0.6,2.7
	c0.2,0.8,0.2,1.4-0.2,2.3c-0.4-0.6-0.8-1-1-1.4c-0.4-0.6-0.8-1-1.2-1.4c-0.2-0.2-0.8-0.4-1.2-0.2c0,0-0.2,0.6-0.2,1
	c0,0.2,0,0.6,0.2,0.8c1.2,2.2,1.8,4.5,2.5,6.8c0.4,1,0.8,2,1.8,2.5c2.2,1.2,4.3,1.6,6.5,0.2c2-1.2,3.5-2.7,5.3-4.1
	c0.6-0.6,1.2-1.4,1.8-2c0.2-0.2,0.2-0.8,0-1c-0.2-0.2-0.6-0.4-1-0.4c-0.4,0-0.8,0.2-1.4,0.4c-0.8,0.4-1.4,0.8-2.2,1.2
	c-0.8,0.4-1.6-0.2-1.6-1c0-0.4,0-1,0.2-1.4c0.4-1.6,1-2.9,1.6-4.5c0.2-0.6,0.2-1.4,0.2-2c0-0.4-0.4-0.8-0.8-1c-0.2,0-0.8,0.2-1,0.4
	c-0.2,0.2-0.4,0.6-0.6,0.8c-0.4,1.2-0.8,2.2-1.2,3.3c-0.2,0.4-0.4,1-0.6,1.4h-0.2c0-0.4-0.2-0.8-0.2-1.4c0-0.8,0-1.6,0-2.3
	c0-0.8,0-1.8-0.2-2.5c0-0.4-0.4-0.8-0.8-0.8c-0.6-0.2-0.8,0.2-1.2,0.6c-0.2,0.2-0.2,0.4-0.2,0.8c0,1.4,0,2.5,0,3.9
	C36.4,48.6,36.2,49.2,36.2,49.8z"/>
</svg>
