<?xml version="1.0" encoding="utf-8"?>
<!-- Generator: Adobe Illustrator 22.0.1, SVG Export Plug-In . SVG Version: 6.00 Build 0)  -->
<svg version="1.1" id="Layer_1" xmlns="http://www.w3.org/2000/svg" xmlns:xlink="http://www.w3.org/1999/xlink" x="0px" y="0px"
	 viewBox="0 0 69.4 74.1" style="enable-background:new 0 0 69.4 74.1;" xml:space="preserve">
<style type="text/css">
	.st0{fill:#A2CD4B;}
	.st1{fill:#91B539;}
	.st2{fill:#7D932C;}
	.st3{fill:#839E32;}
	.st4{fill:#718227;}
</style>
<g>
	<path class="st0" d="M4.3,63.9c0-0.8,0.2-1.5,0.3-2.3c0.8-4.2,1.8-8.4,2.6-12.7C7.4,48,7.6,47,7.7,46.1c0.1-0.6-0.2-1.2-0.5-1.7
		c-0.8-1.3-1.8-2.4-2.7-3.6c-1-1.1-2-2.3-2.8-3.6c-0.8-1.2-1.2-2.6-1.5-4C0,32,0,30.6,0.1,29.3c0-0.1,0-0.2,0.1-0.2
		c0.1,0,0.1,0.1,0.1,0.2c0.4,2.6,1.9,4.6,3.8,6.3c2.5,2.1,5.2,3.8,8.2,5c2.8,1.1,5.6,2,8.5,2.6c2,0.4,4,0.8,6.1,1
		c1.4,0.1,2.8,0.1,4.2,0.2c1,0.1,2,0,3,0.2c0.3,0.1,0.3,0.2,0.3,0.4c-0.2,1.4-1.2,2.1-2.3,2.7c-1.3,0.6-2.7,0.8-4.2,0.8
		c-1.1,0-2.1,0-3.2,0.2c-1.1,0.1-2.3,0.2-3.4,0.7c-0.5,0.2-0.8,0.6-0.7,1.1c0,1.8,0.1,3.5,0.2,5.3c0.1,1.2,0.1,2.4,0.2,3.5
		c0.1,1.5,0.2,3,0.3,4.6c0.1,1.2,0.1,2.4,0.2,3.6c0.1,1.1,0.2,2.2,0.3,3.3c0,0.5,0,0.9-0.1,1.4c-0.3,1.1-1.1,1.6-2.2,1.7
		c-0.8,0.1-1.3-0.3-1.7-0.8c-0.5-0.6-0.7-1.3-1-2c-1.2-3.7-1.9-7.6-3.2-11.3c-0.2-0.6-0.4-1.2-0.7-1.7c-0.3-0.5-0.5-0.5-1-0.3
		c-0.5,0.2-0.8,0.6-1,1c-0.9,1.3-1.4,2.7-1.8,4.1C8.7,63.7,8.4,64.4,8,65c-0.2,0.3-0.6,0.6-0.9,0.8C6.4,66.3,5.7,66.2,5,66
		c-0.1-0.1-0.2-0.2-0.3-0.3C4.4,65.1,4.3,64.5,4.3,63.9z"/>
	<path class="st1" d="M69.2,29.1c0.2,0.9,0.2,1.8,0.1,2.6c-0.2,2.3-0.8,4.4-2.2,6.2c-0.9,1.3-2,2.4-3,3.6c-0.8,1-1.7,2-2.3,3.2
		c-0.2,0.4-0.2,0.8-0.2,1.2c0.1,1,0.3,2.1,0.5,3.1c0.3,1.7,0.7,3.5,1,5.2c0.2,1,0.4,2,0.6,3c0.4,1.9,0.9,3.9,1.2,5.8
		c0.1,0.6,0.1,1.3,0,1.9c0,0.1-0.1,0.2-0.2,0.3c-0.9,1-2.1,0.8-2.9,0.2c-0.6-0.5-1-1.1-1.2-1.8c-0.3-1.3-0.8-2.6-1.4-3.8
		c-0.3-0.7-0.7-1.3-1.3-1.8c-0.2-0.1-0.4-0.2-0.6-0.3c-0.3-0.1-0.5,0-0.7,0.3C56.2,59,55.8,60,55.5,61c-0.7,2.1-1.2,4.3-1.7,6.5
		c-0.4,1.6-0.8,3.1-1.4,4.6c-0.1,0.3-0.3,0.6-0.5,0.9c-0.6,0.9-1.5,1.2-2.5,1c-0.8-0.2-1.5-1.1-1.6-2.1c-0.2-1.1,0-2.1,0.1-3.2
		c0.1-1.1,0.2-2.2,0.3-3.3c0.1-2,0.3-3.9,0.3-5.9c0.1-2.1,0.2-4.2,0.3-6.2c0-0.9,0-1.7,0.1-2.6c0-0.8-0.2-1-0.9-1.3
		c-1.2-0.5-2.4-0.6-3.6-0.7c-1.5-0.1-3.1,0-4.6-0.3c-1.1-0.2-2.3-0.5-3.2-1.1c-0.7-0.5-1.1-1.1-1.3-1.9c0-0.1,0-0.2,0-0.3
		c0-0.5,0-0.4,0.5-0.5c1.8-0.1,3.7-0.2,5.5-0.3c1.5-0.1,3-0.3,4.5-0.6c1.3-0.2,2.7-0.4,4-0.8c1.3-0.3,2.7-0.7,4-1.2
		c2.2-0.7,4.3-1.6,6.4-2.6c1.6-0.8,3.1-1.9,4.5-3.1c1-0.8,2-1.7,2.8-2.7c0.9-1.1,1.3-2.4,1.7-3.8C69,29.5,69,29.3,69.2,29.1z"/>
	<path class="st2" d="M19.2,13.3c0.5-0.4,1.1-0.5,1.7-0.6c1.5-0.3,3.1-0.6,4.7-0.8c1.3-0.2,2.7-0.3,4-0.4c1-0.1,2-0.2,3-0.2
		c2.3-0.1,4.7,0,7,0.1c3.3,0.2,6.6,0.7,9.8,1.4c0.2,0,0.4,0.1,0.7,0.2c-0.5,0.9-1.1,1.5-2,1.9c-0.6,0.3-1.3,0.3-2,0.4
		c-1.2,0.1-2.4,0.2-3.5,0.7c-0.2,0.1-0.4,0.2-0.6,0.3c-0.4,0.3-0.6,0.6-0.6,1.2c0,1.1,0.1,2.3,0.3,3.4c0.2,1.3,0.3,2.6,0.4,3.9
		c0.2,1.4,0.3,2.8,0.5,4.2c0.2,1.4,0.4,2.8,0.5,4.2c0.1,0.8,0.3,1.7,0.2,2.5c0,0.6-0.2,1.2-0.6,1.7c-0.2,0.2-0.2,0.5-0.6,0.6
		c-0.5,0.1-1,0.2-1.5-0.1c-0.8-0.4-1.3-1-1.5-1.8c-0.5-1.4-0.9-2.8-1.4-4.2c-0.5-1.5-1-2.9-1.9-4.2c-0.8-1.1-1.4-1.1-2.2,0
		c-0.9,1.3-1.4,2.8-1.9,4.3c-0.4,1.3-0.8,2.6-1.2,3.8c-0.2,0.7-0.7,1.3-1.4,1.8c-0.5,0.4-1.2,0.4-1.8,0.4c-0.2,0-0.2-0.1-0.3-0.2
		c-0.9-0.9-1.1-1.9-0.9-3.1c0.2-1.5,0.4-2.9,0.6-4.4c0.2-1.5,0.4-3.1,0.6-4.6c0.2-1.8,0.4-3.6,0.6-5.4c0.1-0.7,0.1-1.4,0.1-2.1
		c0-1.2-0.3-1.8-1.5-2.2c-1-0.4-2.1-0.6-3.2-0.7c-0.6-0.1-1.3,0-1.9-0.2c-0.9-0.3-1.6-0.7-2-1.7C19.5,13.5,19.5,13.5,19.2,13.3z"/>
	<path class="st3" d="M59.2,38.5c0.1-0.4,0.3-0.6,0.4-0.8c1-1.6,1.7-3.4,2-5.3c0.2-1.5,0.2-3.1-0.5-4.5c-0.9-1.7-2.6-2.2-4.3-1.3
		c-1.2,0.7-2.1,1.7-2.9,2.8c-1.3,1.9-1.9,4.1-2,6.4c0,1.2,0.1,2.3,0.7,3.4c0.2,0.4,0.1,0.6-0.2,0.9c-0.5,0.5-1.1,0.9-1.8,1
		c-1.5,0.2-2.1-0.7-2.2-2.1c-0.1-0.8,0.2-1.5,0.5-2.2c2.1-5.3,4.2-10.7,6.4-16c0.3-0.7,0.2-1.3-0.3-1.8c-0.7-0.9-1.6-1.5-2.5-2.1
		c-0.4-0.3-0.8-0.5-1.1-0.9c-0.7-0.7-0.9-1.5-0.7-2.4c0-0.2,0.1-0.2,0.3-0.2c1,0.3,2.1,0.7,3.1,1c2.5,0.8,4.9,1.7,7.1,3.1
		c2,1.2,3.9,2.6,5.4,4.4c1.2,1.4,2,2.9,2.4,4.7c0.1,0.5,0.1,1,0.1,1.5c0,0.2-0.1,0.3-0.4,0.3c-0.9-0.1-1.7-0.5-2.3-1.2
		c-0.4-0.5-0.9-1-1.4-1.5c-0.2-0.2-0.4-0.3-0.6-0.4C64,25,63.6,25,63.6,25.7c0,0.6,0.1,1.3,0.2,1.9c0.3,2.1,0.8,4.1,1.3,6.2
		c0.1,0.2,0,0.3-0.1,0.5c-1.3,1.5-2.9,2.5-4.6,3.5C60,38,59.6,38.2,59.2,38.5z"/>
	<path class="st4" d="M10,38.2c-0.3,0.1-0.5,0-0.7-0.2c-1.7-1-3.4-1.9-4.7-3.5c-0.3-0.4-0.4-0.7-0.3-1.3c0.6-2.1,1-4.3,1.3-6.5
		c0.1-0.4,0-0.8,0-1.2c0-0.3-0.1-0.4-0.4-0.4c-0.2,0-0.4,0.1-0.6,0.2C4,25.8,3.5,26.5,3,27.1c-0.7,0.8-1.6,1.2-2.6,1.2
		c-0.2,0-0.2-0.1-0.2-0.3c0.1-2.2,0.9-4.1,2.2-5.8C3,21.3,4,20.6,4.9,19.8c1.8-1.5,3.8-2.8,5.9-3.7c2.4-1.1,5-1.9,7.5-2.7
		c0.2-0.1,0.3,0,0.3,0.2c0.2,0.8,0.2,1.5-0.4,2.1c-0.6,0.7-1.4,1.1-2.1,1.7c-0.7,0.5-1.4,1.1-1.8,1.8c-0.3,0.5-0.3,0.9-0.1,1.5
		c1.3,3.3,2.6,6.5,3.9,9.8c0.9,2.3,1.8,4.5,2.7,6.8c0.3,0.8,0.4,1.7,0.3,2.6c0,0.1,0,0.2-0.1,0.3c-0.6,0.9-1.7,1.2-2.7,0.8
		c-0.7-0.2-1-0.8-1.4-1.3c-0.1-0.1-0.1-0.2,0-0.3c0.9-1.5,1-3.2,0.8-4.8c-0.3-2.5-1.3-4.7-3-6.5c-0.8-0.9-1.8-1.6-3.1-1.8
		c-1.2-0.2-2.1,0.3-2.8,1.2c-0.6,0.9-0.9,1.9-0.9,2.9c-0.2,2.6,0.6,5,2,7.3c0.1,0.2,0.2,0.3,0.3,0.5C10,38.1,10,38.1,10,38.2z"/>
	<path class="st2" d="M34.7,10.3c-2.4,0.1-5-1.9-5.1-5.1c-0.1-2.4,2.1-5,4.4-5.2c3.6-0.3,5.8,2.4,5.9,4.9
		C39.9,7.8,37.7,10.3,34.7,10.3z"/>
	<path class="st1" d="M60.7,31.2c-0.1,2.6-1.1,5.2-3.1,7.2c-0.8,0.8-1.7,1.3-2.9,1.3c-0.3,0-0.5-0.1-0.7-0.3
		c-0.8-0.6-1.1-1.5-1.2-2.5c-0.2-1.8,0.1-3.5,0.8-5.1c0.6-1.5,1.5-2.8,2.8-3.9c0.4-0.3,0.8-0.5,1.3-0.7c1.1-0.5,2.1,0.2,2.6,1.1
		C60.6,29.2,60.7,30.1,60.7,31.2z"/>
	<path class="st0" d="M16.6,36.2c-0.1,0.8-0.1,1.6-0.5,2.2c-0.1,0.1-0.2,0.3-0.3,0.4c-0.9,1.1-1.6,1.2-2.9,0.5
		c-1.9-1.1-2.9-2.9-3.6-4.9c-0.5-1.5-0.8-3.1-0.5-4.7c0.1-0.6,0.4-1.2,0.6-1.7c0.3-0.5,1.4-0.9,1.9-0.8c1.2,0.3,2.1,1,2.9,2
		c0.3,0.4,0.6,0.8,0.8,1.3c0.2,0.3,0.1,0.6,0.3,0.8c0.3,0.2,0.3,0.5,0.4,0.7C16.3,33,16.7,35.1,16.6,36.2z"/>
	<path class="st3" d="M63.9,12c0,0.9-0.2,2-0.8,2.9c-0.3,0.4-0.8,0.6-1.3,0.7c-0.8,0.2-1.5,0-2.2-0.5c-1.6-1.2-2.4-2.9-2.9-4.7
		c-0.4-1.6-0.4-3.2,0.3-4.8c0.4-0.9,1.6-1.7,2.8-1.2c1,0.4,1.8,1.1,2.4,1.9C63.3,8,63.9,9.8,63.9,12z"/>
	<path class="st4" d="M5.4,11.4c0.1-2,0.9-4.2,2.7-5.9c0.8-0.8,1.7-1.2,2.8-0.8c0.7,0.2,1.2,0.6,1.6,1.4C13,7.2,13,8.4,12.8,9.7
		c-0.3,2-1.1,3.7-2.5,5.1c-0.9,0.9-2,1.1-3.2,0.8c-0.4-0.1-0.6-0.4-0.8-0.7C5.6,14,5.4,12.9,5.4,11.4z"/>
	<path class="st4" d="M2.8,40.8c0.1,0,0.2,0.1,0.2,0.1c0.9,1,1.8,2,2.5,3.1c0.3,0.4,0.5,0.8,0.7,1.3c0.5,1.1,0.1,2-0.4,2.9
		c-0.2,0.3-0.5,0.3-0.9,0.4c-0.5,0.2-1,0.1-1.4-0.2c-1-0.6-1.3-1.4-1.4-2.5c0-1,0.1-1.9,0.3-2.8c0.1-0.7,0.2-1.4,0.3-2.1
		C2.8,40.9,2.8,40.8,2.8,40.8z"/>
	<path class="st3" d="M67.2,45.4c-0.1,0.6,0,1.4-0.5,2.1c-0.5,0.7-1.2,1-2.1,1.1c-0.6,0-0.8-0.3-1.1-0.6c-0.5-0.7-0.7-1.4-0.6-2.3
		c0.1-0.9,0.7-1.6,1.2-2.3c0.7-0.9,1.4-1.7,2.1-2.5c0,0,0.1-0.1,0.2-0.1c0.1,0,0.1,0.2,0.2,0.3c0.1,0.6,0.2,1.2,0.3,1.9
		C67,43.7,67.2,44.5,67.2,45.4z"/>
</g>
</svg>
