<?xml version="1.0" encoding="utf-8"?>
<!-- Generator: Adobe Illustrator 22.0.1, SVG Export Plug-In . SVG Version: 6.00 Build 0)  -->
<svg version="1.1" id="Layer_1" xmlns="http://www.w3.org/2000/svg" xmlns:xlink="http://www.w3.org/1999/xlink" x="0px" y="0px"
	 viewBox="0 0 69.4 74.1" style="enable-background:new 0 0 69.4 74.1;" xml:space="preserve">
<style type="text/css">
	.st0{fill:#A2CD4B;}
</style>
<g>
	<path class="st0" d="M1.1,66.3c0.1-0.4,0.3-0.7,0.4-1.1c4-12.1,8.1-24.2,12.1-36.3c0.1-0.2,0.2-0.3,0.4-0.3c3.1,0,6.2,0,9.3,0
		c0.2,0,0.3,0.1,0.4,0.2c0.6,1.2,1.2,2.5,1.9,3.7c0,0.1,0.1,0.2,0.1,0.3c-0.1,0-0.2,0-0.3,0c-2.8,0-5.6,0-8.4,0
		c-0.2,0-0.3,0-0.3,0.2c-1.4,4.1-2.7,8.2-4.1,12.3c0,0,0,0.1,0,0.1c0.4,0.3,0.8,0.6,1.3,0.9c-0.7,1.2-1.5,2.3-2.2,3.5
		c-0.1-0.1-0.3-0.2-0.4-0.3C9.7,53.8,8.3,58,6.9,62.2c18.5,0,37,0,55.5,0c-1.3-3.9-2.6-7.8-3.9-11.7c-0.2,0.1-0.3,0.2-0.4,0.2
		c-0.8-0.9-1.6-1.8-2.4-2.7c0.4-0.4,0.8-0.9,1.2-1.3c0.2-0.2,0.2-0.3,0.1-0.6c-1.5-4.3-2.9-8.7-4.3-13c-0.1-0.2-0.2-0.3-0.4-0.3
		c-2.8,0-5.5,0-8.3,0c-0.1,0-0.2,0-0.3,0c0.1-0.1,0.1-0.2,0.1-0.3c0.6-1.2,1.3-2.5,1.9-3.7c0.1-0.2,0.2-0.2,0.4-0.2
		c3.1,0,6.2,0,9.3,0c0.2,0,0.3,0.1,0.4,0.3c3,8.9,5.9,17.8,8.9,26.7c1.2,3.5,2.3,6.9,3.5,10.4c0,0.1,0.1,0.2,0.1,0.2
		c0,0,0,0.1,0,0.1c-22.4,0-44.8,0-67.1,0C1.1,66.4,1.1,66.3,1.1,66.3z"/>
	<path class="st0" d="M34.7,41.2c-0.7-1.5-1.5-2.9-2.2-4.3c-2.4-4.7-4.8-9.4-7.2-14.1C22.1,16.6,26,9,32.9,7.8
		c5.4-0.9,10.5,2.4,12,7.7c0.7,2.5,0.4,5-0.8,7.3C41,28.9,37.9,34.9,34.8,41C34.8,41.1,34.7,41.1,34.7,41.2z M41,18.2
		c0-3.5-2.8-6.3-6.3-6.3c-3.5,0-6.3,2.8-6.3,6.3c0,3.5,2.8,6.3,6.3,6.3C38.1,24.4,41,21.6,41,18.2z"/>
	<path class="st0" d="M20.9,52.6c-1.7,0-3.3-0.2-4.8-0.7c0.4-1.4,0.8-2.7,1.1-3.9c1.3,0.2,2.5,0.4,3.7,0.5
		C20.9,49.8,20.9,51.2,20.9,52.6z"/>
	<path class="st0" d="M54.5,42.1c-0.6,1.3-1.3,2.5-1.9,3.7c-1.2-0.4-2.3-0.8-3.5-1.2c0.3-1.3,0.5-2.6,0.8-4
		C51.5,40.8,53,41.3,54.5,42.1z"/>
	<path class="st0" d="M41.5,45.1c-0.4-1.3-0.8-2.6-1.2-3.9c1.5-0.5,3.1-0.8,4.7-0.9c0.1,1.4,0.2,2.8,0.3,4.1
		C44.1,44.6,42.8,44.8,41.5,45.1z"/>
	<path class="st0" d="M36,42.9c0.7,1.3,1.3,2.5,1.9,3.7c-1.2,0.7-2.4,1.4-3.7,2.1c-0.7-1.2-1.4-2.4-2-3.7
		C33.5,44.4,34.7,43.6,36,42.9z"/>
	<path class="st0" d="M25.6,52.1c-0.3-1.4-0.6-2.7-0.8-4c1.3-0.4,2.5-0.8,3.8-1.2c0.5,1.2,1,2.5,1.5,3.8
		C28.6,51.4,27.1,51.8,25.6,52.1z"/>
</g>
</svg>
