<?xml version="1.0" encoding="utf-8"?>
<!-- Generator: Adobe Illustrator 22.0.1, SVG Export Plug-In . SVG Version: 6.00 Build 0)  -->
<svg version="1.1" id="Layer_1" xmlns="http://www.w3.org/2000/svg" xmlns:xlink="http://www.w3.org/1999/xlink" x="0px" y="0px"
	 viewBox="0 0 700 250" style="enable-background:new 0 0 700 250;" xml:space="preserve">
<style type="text/css">
	.st0{fill:#F6F6F6;}
	.st1{fill:#BEBEBE;}
	.st2{fill:#BFBFBF;}
</style>
<rect class="st0" width="700" height="250"/>
<g>
	<path class="st1" d="M328.7,112.2c0-6.8,0-13.6,0-20.4c0-0.8,0.2-1,1-1c13.6,0,27.2,0,40.8,0c0.8,0,1,0.3,1,1c0,13.6,0,27.2,0,40.9
		c0,0.8-0.2,1-1,1c-13.6,0-27.2,0-40.8,0c-0.8,0-1-0.2-1-1C328.7,125.8,328.7,119,328.7,112.2z M350,94.7c-5.5,0-11,0-16.5,0
		c-0.9,0-1.1,0.2-1.1,1.1c0.1,8,0.1,15.9,0,23.9c0,0.8,0.2,1.1,1,1.1c11.1-0.1,22.2-0.1,33.3,0c0.8,0,1-0.2,1-1c-0.1-8-0.1-16,0-24
		c0-0.9-0.3-1-1-1C361,94.7,355.5,94.7,350,94.7z"/>
	<path class="st2" d="M343.2,113.2c1.3-2.1,2.6-4.2,3.9-6.2c0.3-0.6,0.5-0.6,1-0.2c1,1,2,2,3,3.1c0.6,0.7,0.9,0.5,1.3-0.2
		c1.5-2.4,3.1-4.7,4.7-7.1c0.2-0.2,0.3-0.5,0.5-0.5c0.3,0,0.3,0.4,0.4,0.6c1.8,4.5,3.7,9,5.5,13.5c0.2,0.6,0.3,0.9-0.5,0.9
		c-4.8-0.1-9.6,0.1-14.4-0.1c-3.6-0.1-7.2-0.1-10.9-0.1c-0.7,0-0.9-0.1-0.5-0.8c0.9-1.7,1.8-3.5,2.7-5.3c0.3-0.6,0.6-0.6,1-0.2
		C341.4,111.4,342.2,112.3,343.2,113.2z"/>
	<path class="st2" d="M343.3,103.2c0.3,1.4-1.3,2.7-2.8,2.7c-1.3,0.1-2.8-1.6-2.8-2.8c0-1.4,1.4-2.8,2.8-2.8
		C342.3,100.4,343.3,101.4,343.3,103.2z"/>
</g>
<g>
	<path class="st1" d="M318.7,165.1h-2l-5.1-8.2h-0.1v0.5c0.1,0.9,0.1,1.7,0.1,2.4v5.4H310v-10.3h2l5.1,8.2h0.1c0-0.1,0-0.5-0.1-1.2
		c0-0.7-0.1-1.2-0.1-1.6v-5.4h1.5L318.7,165.1L318.7,165.1z"/>
	<path class="st1" d="M331.9,159.9c0,1.7-0.5,3-1.3,3.9c-0.8,0.9-2,1.4-3.6,1.4c-1.5,0-2.7-0.5-3.6-1.4c-0.8-0.9-1.2-2.2-1.2-3.9
		c0-1.7,0.5-3,1.3-3.9c0.8-0.9,2-1.4,3.6-1.4c1.5,0,2.7,0.5,3.6,1.4C331.6,157,331.9,158.3,331.9,159.9z M324.1,159.9
		c0,1.3,0.2,2.2,0.8,2.9c0.5,0.7,1.3,1,2.3,1c1,0,1.7-0.3,2.3-1s0.8-1.6,0.8-2.9c0-1.3-0.2-2.2-0.8-2.9c-0.5-0.7-1.3-1-2.3-1
		c-1,0-1.7,0.3-2.3,1C324.4,157.7,324.1,158.7,324.1,159.9z"/>
	<path class="st1" d="M340.8,165.1v-10.2h1.7v10.3L340.8,165.1L340.8,165.1z"/>
	<path class="st1" d="M351,165.1l-3-8.6H348c0.1,1.3,0.2,2.5,0.2,3.6v5h-1.5v-10.2h2.3l2.9,8.2h0.1l3-8.2h2.3v10.3h-1.6v-5.1
		c0-0.5,0-1.2,0.1-2c0-0.8,0.1-1.3,0.1-1.5h-0.1l-3.1,8.6L351,165.1L351,165.1z"/>
	<path class="st1" d="M367.7,165.1l-1.1-2.9h-3.9l-1,2.9H360l3.9-10.3h1.8l3.9,10.3H367.7z M366.2,160.8l-1-2.8
		c-0.1-0.2-0.2-0.5-0.3-0.9c-0.2-0.5-0.2-0.7-0.2-0.9c-0.2,0.6-0.3,1.2-0.5,1.9l-0.9,2.7L366.2,160.8L366.2,160.8z"/>
	<path class="st1" d="M376.5,159.6h3.8v5.1c-0.6,0.2-1.2,0.4-1.8,0.5c-0.6,0.1-1.2,0.2-1.8,0.2c-1.6,0-2.7-0.5-3.6-1.4
		c-0.8-0.9-1.3-2.2-1.3-3.9c0-1.7,0.5-3,1.4-3.9c1-0.9,2.3-1.4,3.9-1.4c1.1,0,2.1,0.2,3,0.6l-0.6,1.4c-0.8-0.4-1.7-0.6-2.5-0.6
		c-1.1,0-2,0.4-2.6,1.1s-1,1.7-1,2.8c0,1.3,0.3,2.2,0.8,2.9c0.6,0.7,1.4,1,2.5,1c0.5,0,1.1-0.1,1.7-0.2V161h-2.1L376.5,159.6
		L376.5,159.6z"/>
	<path class="st1" d="M390,165.1h-5.8v-10.2h5.8v1.4h-4.2v2.8h3.9v1.4h-3.9v3.3h4.2V165.1z"/>
</g>
</svg>
